<?xml version="1.0" standalone="no"?>
<!DOCTYPE svg PUBLIC "-//W3C//DTD SVG 20010904//EN"
 "http://www.w3.org/TR/2001/REC-SVG-20010904/DTD/svg10.dtd">
<svg version="1.0" xmlns="http://www.w3.org/2000/svg"
 width="873.000000pt" height="873.000000pt" viewBox="0 0 873.000000 873.000000"
 preserveAspectRatio="xMidYMid meet">
<metadata>
Created by potrace 1.14, written by Peter Selinger 2001-2017
</metadata>
<g transform="translate(0.000000,873.000000) scale(0.100000,-0.100000)"
fill="#000000" stroke="none">
<path d="M5690 7955 c-384 -56 -669 -176 -945 -394 -272 -215 -526 -597 -597
-893 -12 -54 -25 -98 -29 -98 -3 0 -38 49 -77 109 -99 152 -216 296 -346 426
-191 190 -245 223 -352 212 -97 -10 -187 -80 -212 -166 -16 -53 -15 -72 9
-135 17 -48 33 -67 117 -138 215 -184 352 -336 440 -491 61 -106 191 -397 177
-397 -2 0 -56 25 -120 55 -152 71 -337 131 -488 156 -107 19 -149 21 -337 16
-244 -6 -331 -21 -524 -87 -291 -100 -513 -229 -758 -439 -318 -274 -564 -628
-740 -1066 -177 -438 -236 -1084 -148 -1610 25 -143 79 -363 121 -481 17 -49
40 -116 51 -148 36 -102 190 -395 280 -533 47 -72 138 -196 200 -275 379 -474
935 -823 1503 -941 188 -40 309 -50 509 -44 215 6 354 32 570 104 l139 47 121
-42 c246 -85 407 -112 670 -112 339 0 598 55 946 202 387 163 784 483 1071
863 120 159 280 438 351 613 118 289 211 642 240 903 19 177 16 644 -5 818
-47 383 -217 841 -430 1161 -150 224 -286 383 -453 531 -192 168 -337 268
-518 357 l-110 54 79 33 c329 137 579 351 798 685 143 218 256 457 391 822 47
127 51 147 32 192 -21 50 -56 62 -201 69 -145 8 -535 40 -810 67 -138 13 -512
11 -615 -5z"/>
</g>
</svg>
